@startuml ClassDiagram

class MonopolyJunior {
    {static} + main(args: String[]): void
}

class Account {
    - cash: int
    + Account()
    + addCash(cash: int): void
    + getCash(): int
}

class Bankruptcy {
    {static} - boolean bankruptcy
    {static} + getBankruptcy(): boolean
    {static} + setBankruptcy(): void
}

class Dice {
    {static} + rollDice(): int
}

package Languages.java {
    class Languages {
        {static} + language: int
        {static} - english: Language
        {static} - danish: Language
        {static} - languages: Language[]
        {static} + getLanguage(index: LanguageIndex): String
        {static} + selectLanguage(): void
    }

    interface Language <<@FunctionalInterface>> {
        + LanguageOutput(index: LanguageIndex): String
    }

    enum LanguageIndex {
        PLAYER_NUM
        PLAYER_ROLE
        PLAYER_NAME
        PLAYER_TO_STRING_1
        PLAYER_TO_STRING_2
        BOUGHT_PROPERTY
        PAID_RENT
        LANDED
        NEXT_TURN
        START
        BURGER_SHOP
        PIZZERIA
        CHANCE
        CANDY_SHOP
        ICE_CREAM_SHOP
        JAIL
        MUSEUM
        LIBRARY
        SKATE_PARK
        SWIMMING_POOL
        FREE_PARKING
        ARCADE
        CINEMA
        TOY_SHOP
        PET_SHOP
        GO_TO_JAIL
        BOWLING_ALLEY
        ZOO
        WATER_PARK
        BEACH_PROMENADE
        CARD
        BACK_TO_START
        MOVE_FIVE
        FREE_ORANGE
        MOVE_ONE
        CANDY
        FREE_BLUE
        GET_OUT_OF_JAIL
        GO_BEACH_PROMENADE
        BIRTHDAY
        HOMEWORK
        FREE_RED
        GO_SKATE_PARK
        OWNER
        FOLLOWING_TURN
        END
        DEBUG_OUTPUT
        ALWAYS_OUT_OF_RANGE
    }
}

class LineReader {
    {static} - scanner: Scanner
    {static} + nextLine(): String
    {static} + nextInt(): int
    {static} + close(): void
}

package Player.java {
    class Player {
        - name: String
        - account: Account
        - wins: int
        - position: int
        - role: Role
        - imprisoned: boolean

        + Player(name: String, role: Role)
        + getName(): String
        + getWins(): int
        + getCash(): int
        + getPosition(): int
        + getImprisonment(): boolean
        + setImprisonment(): void
        + toString(): String
        + toStringFull(): String
        + wins(): void
        + move(move: int): void
        + setPosition(x: int): void
        + addCash(cash: int): void
        + pay(cash: int, recipient: Player): void
    }

    enum Role {
        CAR
        SHIP
        CAT
        DOG
    }
}

class PlayerController {
    {static} - owners: Player[]
    {static} - numPlayers: int
    {static} - currentPlayer: Player
    {static} - car: Player
    {static} - ship: Player
    {static} - dog: Player
    {static} - cat: Player
    {static} - players: Player[]
    {static} + createPlayers(): void
    {static} + updateCurrentPlayer(): void
    {static} + getCar(): Player
    {static} + getShip(): Player
    {static} + getDog(): Player
    {static} + getCat(): Player
    {static} + getCurrentPlayer(): Player
    {static} + getPlayers(): Player[]
    {static} + getRichest(): Player
    {static} - generatePlayer(n: int): Player
    {static} - getName(): String
}

class RecordKeeper {
    {static} - RECORD_FILE: String
    {static} - playerWins: Map<String, Integer>

    {static} + getWins(player: Player): int
    {static} + recordGame(p1: Player, p2: Player): void
    {static} + saveRecords(): void
    {static} + updateRecord(player: Player): void
    {static} + loadRecords(): void
}

package TileActivity.java {
    class TileActivity {
        {static} - start: Activity
        {static} - jail: Activity
        {static} - freeParking: Activity
        {static} - goToJail: Activity
        {static} - chance: Activity
        {static} - burgerShop: Activity
        {static} - pizzeria: Activity
        {static} - candyShop: Activity
        {static} - iceCreamShop: Activity
        {static} - jail: Activity
        {static} - museum: Activity
        {static} - library: Activity
        {static} - skatePark: Activity
        {static} - swimmingPool: Activity
        {static} - arcade: Activity
        {static} - cinema: Activity
        {static} - toyShop: Activity
        {static} - bowlingAlley: Activity
        {static} - zoo: Activity
        {static} - waterPark: Activity
        {static} - beachPromenade: Activity
        {static} - activities: Activity[]
        {static} + runTile(tile: Tile): void
    }

    interface Activity <<@FunctionalInterface>> {
        + runActivity(tile: Tile): void
    }
}

package Turn.java {
    class Turn {
        {static} + runTurn(player: Player): void
    }

    enum Tile {
        START
        BURGER_SHOP
        PIZZERIA
        CHANCE_ONE
        CANDY_SHOP
        ICE_CREAM_SHOP
        JAIL
        MUSEUM
        LIBRARY
        CHANCE_TWO
        SKATE_PARK
        SWIMMING_POOL
        FREE_PARKING
        ARCADE
        CINEMA
        CHANCE_THREE
        TOY_SHOP
        PET_SHOP
        GO_TO_JAIL
        BOWLING_ALLEY
        ZOO
        CHANCE_FOUR
        WATER_PARK
        BEACH_PROMENADE
    }
}

class End {
    {static} - end(): void
}

class BoardUI {
    {static} + displayBoard(): void
}

package Chance.java {
    class Chance {
        {static} - backToStart: ChanceActivity
        {static} - moveFive: ChanceActivity
        {static} - freeOrange: ChanceActivity
        {static} - moveOne: ChanceActivity
        {static} - candy: ChanceActivity
        {static} - freeBlue: ChanceActivity
        {static} - getOutOfJail: ChanceActivity
        {static} - goBeachPromenade: ChanceActivity
        {static} - birthday: ChanceActivity
        {static} - homework: ChanceActivity
        {static} - freeRed: ChanceActivity
        {static} - goSkatePark: ChanceActivity

        {static} - cards: ChanceActivity[]
        {static} + chance(): void
    }

    interface ChanceActivity <<@FunctionalInterface>> {
        + chanceActivity(): void
    }
}

package Deck {
    class Deck {
        {static} - deck: List<Card>

        {static} + shuffle(): void
        {static} + shift(): void
        {static} + getCard(): Card 
    }

    enum Card {
        BACK_TO_START
        MOVE_FIVE
        FREE_ORANGE
        MOVE_ONE
        CANDY
        FREE_BLUE
        GET_OUT_OF_JAIL
        GO_BEACH_PROMENADE
        BIRTHDAY
        HOMEWORK
        FREE_RED
        GO_SKATE_PARK
    }
}

Languages <-- MonopolyJunior
Language --* Languages
Languages -r- LanguageIndex
Languages -d-> LineReader
MonopolyJunior --> PlayerController
Languages <-- PlayerController
LineReader <-- PlayerController
PlayerController --> Player
Player -r- Role
Player *-l- Account
Turn <-- MonopolyJunior
Turn -r- Tile
Turn -d-> Dice
Player --> RecordKeeper
TileActivity <-- Turn
MonopolyJunior --> Bankruptcy
Activity -d-* TileActivity
Account -u-> Bankruptcy
TileActivity --> Tile
TileActivity -l-> Languages
MonopolyJunior -u-> End
End -u-> PlayerController
End -u-> Languages
MonopolyJunior -r-> BoardUI
BoardUI -u-> PlayerController
BoardUI -u-> Languages
MonopolyJunior -d-> RecordKeeper
End -d-> RecordKeeper
TileActivity -d-> Chance
Chance -r-* ChanceActivity
Chance -r-> Languages
Chance -d-> PlayerController
Chance -d-> Deck
Deck -r- Card

@enduml